<?xml version="1.0" standalone="no"?>
<!DOCTYPE svg PUBLIC "-//W3C//DTD SVG 20010904//EN"
 "http://www.w3.org/TR/2001/REC-SVG-20010904/DTD/svg10.dtd">
<svg version="1.0" xmlns="http://www.w3.org/2000/svg"
 width="512.000000pt" height="512.000000pt" viewBox="0 0 512.000000 512.000000"
 preserveAspectRatio="xMidYMid meet">
<metadata>
Created by potrace 1.14, written by Peter Selinger 2001-2017
</metadata>
<g transform="translate(0.000000,512.000000) scale(0.100000,-0.100000)"
fill="#000000" stroke="none">
<path d="M2318 5115 c-2 -2 -32 -6 -68 -9 -71 -7 -295 -50 -348 -67 -18 -6
-39 -12 -45 -13 -39 -7 -229 -76 -327 -119 -457 -203 -844 -532 -1120 -953
-110 -168 -279 -532 -304 -655 -3 -13 -11 -46 -20 -74 -17 -58 -52 -230 -60
-295 -17 -138 -20 -192 -21 -360 0 -170 6 -289 19 -365 3 -16 8 -43 10 -60 3
-25 28 -148 41 -205 24 -103 92 -300 138 -400 70 -153 82 -177 140 -275 171
-291 407 -554 680 -759 339 -253 773 -430 1182 -481 28 -4 77 -10 110 -14 59
-8 468 -6 515 3 14 2 45 7 70 10 25 4 81 14 125 22 44 9 91 17 105 20 58 11
213 58 315 96 165 61 270 113 488 242 52 30 228 161 280 208 51 46 65 83 46
121 -15 29 -1037 1050 -1066 1066 -36 18 -53 13 -147 -44 -83 -50 -221 -106
-292 -120 -333 -61 -646 32 -870 260 -287 291 -359 710 -187 1074 125 263 349
444 638 516 52 13 103 31 112 41 17 16 18 65 20 769 1 414 0 761 -3 772 -8 29
-53 50 -106 50 -26 1 -48 -1 -50 -2z"/>
<path d="M2692 5110 c-47 -20 -47 -21 -46 -813 0 -612 3 -749 14 -762 13 -16
70 -50 70 -41 0 3 17 0 90 -18 8 -2 46 -16 84 -30 289 -109 514 -370 581 -671
13 -56 25 -85 43 -102 l25 -23 748 0 c535 0 755 3 773 11 52 24 55 86 16 319
-21 124 -23 132 -39 200 -7 25 -14 54 -16 65 -5 21 -74 226 -96 285 -26 68
-165 336 -214 410 -67 104 -200 275 -256 333 -37 38 -53 47 -81 47 -19 0 -38
-4 -44 -9 -9 -9 -26 4 -139 108 -22 20 -59 52 -81 70 -39 30 -41 36 -37 70 3
21 0 47 -5 58 -6 11 -55 49 -109 85 -258 173 -573 304 -883 368 -184 38 -361
56 -398 40z"/>
<path d="M3549 2473 c-34 -14 -43 -31 -60 -108 -15 -68 -13 -63 -23 -90 -33
-87 -64 -155 -102 -217 -25 -41 -44 -86 -44 -102 0 -25 71 -100 528 -558 290
-291 538 -534 551 -539 46 -19 77 -2 144 79 203 246 351 514 452 817 51 153
99 365 110 490 2 22 7 67 10 101 7 70 -4 108 -37 125 -32 18 -1487 20 -1529 2z"/>
</g>
</svg>
